<svg width="16" height="16" viewBox="0 0 16 16" fill="none" xmlns="http://www.w3.org/2000/svg">
<path d="M10.188 1.18317C10.3096 1.33405 10.3716 1.53767 10.4951 1.94442L13.2021 10.8364C12.1854 10.3087 11.0941 9.93926 9.96587 9.7408L8.20362 3.78505C8.18971 3.73744 8.16073 3.69563 8.12102 3.6659C8.08132 3.63617 8.03304 3.62013 7.98344 3.62019C7.93384 3.62025 7.88559 3.6364 7.84596 3.66621C7.80632 3.69603 7.77743 3.73791 7.76363 3.78555L6.0225 9.7378C4.88937 9.93543 3.7932 10.3055 2.77213 10.835L5.49188 1.94255C5.61638 1.5363 5.67838 1.33305 5.79988 1.18217C5.90727 1.04937 6.0468 0.946189 6.20525 0.882422C6.38438 0.810547 6.59725 0.810547 7.02213 0.810547H8.965C9.39025 0.810547 9.60313 0.810547 9.78288 0.882922C9.94143 0.946678 10.0808 1.05006 10.188 1.18317Z" fill="white"/>
<path d="M10.5117 11.2593C10.0655 11.6412 9.17475 11.9014 8.14887 11.9014C6.89012 11.9014 5.8345 11.5093 5.55462 10.9819C5.45462 11.2842 5.43212 11.6299 5.43212 11.8512C5.43212 11.8512 5.36625 12.9356 6.12062 13.6899C6.12062 13.5968 6.13896 13.5046 6.17459 13.4186C6.21022 13.3326 6.26245 13.2545 6.32829 13.1886C6.39413 13.1228 6.47229 13.0706 6.55831 13.035C6.64433 12.9994 6.73652 12.981 6.82962 12.9811C7.50087 12.9811 7.5005 13.5664 7.5 14.0421V14.0841C7.5 14.8057 7.94087 15.4239 8.56787 15.6847C8.47124 15.4862 8.42114 15.2682 8.42137 15.0474C8.42137 14.3589 8.82512 14.1031 9.29487 13.8052C9.6685 13.5684 10.0835 13.3052 10.3691 12.7774C10.5233 12.4931 10.6038 12.1746 10.6035 11.8512C10.6037 11.6503 10.5727 11.4507 10.5117 11.2593Z" fill="#FF5D01"/>
<path d="M10.5117 11.2593C10.0655 11.6412 9.17475 11.9014 8.14887 11.9014C6.89012 11.9014 5.8345 11.5093 5.55462 10.9819C5.45462 11.2842 5.43212 11.6299 5.43212 11.8512C5.43212 11.8512 5.36625 12.9356 6.12062 13.6899C6.12062 13.5968 6.13896 13.5046 6.17459 13.4186C6.21022 13.3326 6.26245 13.2545 6.32829 13.1886C6.39413 13.1228 6.47229 13.0706 6.55831 13.035C6.64433 12.9994 6.73652 12.981 6.82962 12.9811C7.50087 12.9811 7.5005 13.5664 7.5 14.0421V14.0841C7.5 14.8057 7.94087 15.4239 8.56787 15.6847C8.47124 15.4862 8.42114 15.2682 8.42137 15.0474C8.42137 14.3589 8.82512 14.1031 9.29487 13.8052C9.6685 13.5684 10.0835 13.3052 10.3691 12.7774C10.5233 12.4931 10.6038 12.1746 10.6035 11.8512C10.6037 11.6503 10.5727 11.4507 10.5117 11.2593Z" fill="url(#paint0_linear_14_216)"/>
<defs>
<linearGradient id="paint0_linear_14_216" x1="12.521" y1="8.15568" x2="9.87907" y2="13.6864" gradientUnits="userSpaceOnUse">
<stop stop-color="#FF1639"/>
<stop offset="1" stop-color="#FF1639" stop-opacity="0"/>
</linearGradient>
</defs>
</svg>
