<svg width="24" height="24" viewBox="0 0 24 24" fill="none" xmlns="http://www.w3.org/2000/svg">
<rect width="24" height="24" rx="3" fill="#007593"/>
<path d="M5 18.6649L7.48904 15.2668C8.96827 16.485 10.6536 17.3162 12.4167 17.3162C13.6624 17.3162 14.3104 16.7712 14.3104 15.9927V15.9675C14.3104 15.2416 13.7655 14.7997 11.6382 14.0486C8.21492 12.8808 5.80373 11.6374 5.80373 8.34234V8.26449C5.80373 4.97172 8.32254 2.66357 12.2862 2.66357C14.7249 2.66357 16.8659 3.33678 18.7687 4.86868L16.4079 8.34234C15.1622 7.38291 13.6601 6.68222 12.1809 6.68222C11.1184 6.68222 10.5208 7.20201 10.5208 7.87522V7.90041C10.5208 8.70414 11.0909 9.11859 13.3991 9.97499C16.8476 11.0901 19 12.4938 19 15.5759V15.6286C19 19.1549 16.2774 21.3348 12.387 21.3348C9.68077 21.3795 7.05228 20.4295 5 18.6649Z" fill="white"/>
</svg>